<svg xmlns="http://www.w3.org/2000/svg" viewBox="0 0 64 64" role="img" aria-label="WhatsApp icon">
  <rect width="64" height="64" rx="14" fill="#25D366"/>
  <path d="M32 14c-9.9 0-18 7.9-18 17.7 0 3.4.9 6.6 2.6 9.3L15 50l9.2-1.5c2.7 1.4 5.7 2.2 9 2.2 9.9 0 18-7.9 18-17.7S41.9 14 32 14z" fill="#fff" opacity="0.96"/>
  <path d="M26.4 22.8c.7-1.5 1.2-1.6 1.9-1.6.3 0 .6 0 .9.1.3.1.7.7 1.1 1.7.4 1 .9 2.2.8 2.5-.1.3-.2.6-.5 1-.3.4-.5.8-.2 1.3.3.5 1.2 2 2.6 3.2 1.7 1.5 3.2 2.3 3.7 2.6.5.3.8.3 1.2.1.4-.2 1.7-1 2.2-1.4.5-.4.8-.3 1.1-.2.3.1 2.8 1.3 3.3 1.6.5.3.8.4.9.7.1.3.1 1.8-.7 3.5-.7 1.7-2.9 2.9-4 3-.9.1-2.1.1-3.4-.3-1-.3-2.3-.7-3.9-1.4-2.8-1.2-5.1-3.1-7-5.4-1.9-2.3-3.1-4.7-3.8-6.6-.7-1.8-.6-3.4-.4-4.1.2-.7.6-1.1 1.1-1.2.5-.1 1.3-.1 1.7-.1.4 0 .8 0 1.1.8.3.7 1.1 2.6 1.2 2.8.1.2.2.5.1.8-.1.3-.3.6-.6 1-.3.3-.6.8-.4 1.2.2.5.9 1.8 2.1 2.9 1.4 1.2 2.6 1.6 3 .7.4-.8.8-1.3 1.2-1.3.4 0 .7.1 1 .2.3.1 2.4 1.1 2.8 1.3.4.2.6.4.6.7 0 .3-.1.9-.5 1.7-.4.8-1.5 1.6-3.1 1.8-1.6.2-3.7-.4-6-1.6-2.3-1.2-4.2-2.9-5.8-5-1.5-2-2.2-3.9-2.1-5.6.1-1.7.8-3.1 1.5-4.6z" fill="#25D366"/>
</svg>
